<svg xmlns="http://www.w3.org/2000/svg" width="512" height="512" viewBox="0 0 512 512" version="1.1"><path d="M 115.500 17.893 C 97.521 23.140, 83.283 35.371, 75.575 52.190 C 71.386 61.331, 70 67.833, 70 78.339 C 70 88.368, 71.865 96.100, 76.671 106 C 81.239 115.407, 93.419 127.961, 102.686 132.811 C 116.076 139.820, 132.773 141.767, 147.404 138.025 C 158.871 135.092, 166.344 130.721, 175.594 121.537 C 188.159 109.059, 194.015 95.211, 193.985 78.040 C 193.966 66.945, 191.925 58.584, 186.860 48.847 C 179.140 34.008, 163.730 21.814, 147.356 17.586 C 139.097 15.454, 123.338 15.606, 115.500 17.893 M 356.217 17.399 C 339.857 21.516, 322.988 35.132, 315.669 50.129 C 306.862 68.176, 306.870 87.901, 315.691 105.871 C 320.866 116.412, 332.542 128.114, 343 133.240 C 370.669 146.801, 402.756 139.375, 420.964 115.196 C 442.163 87.046, 435.401 46.519, 406.174 26.549 C 395.698 19.391, 386.848 16.668, 373 16.341 C 365.847 16.172, 359.503 16.572, 356.217 17.399 M 126.344 49.031 C 116.878 50.928, 107.909 58.435, 104.526 67.292 C 101.876 74.232, 102.732 86.160, 106.320 92.283 C 111.833 101.690, 121.099 107, 132 107 C 142.901 107, 152.167 101.690, 157.680 92.283 C 161.276 86.147, 162.124 74.233, 159.462 67.261 C 154.620 54.582, 139.680 46.358, 126.344 49.031 M 364.344 49.031 C 355.715 50.760, 347.660 56.973, 343.395 65.190 C 340.803 70.184, 340.372 81.593, 342.530 88.089 C 344.955 95.390, 352.610 103.045, 359.911 105.470 C 367.506 107.993, 378.241 107.228, 384.144 103.742 C 394.068 97.883, 399.298 89.001, 399.289 78.023 C 399.274 59.562, 382.254 45.441, 364.344 49.031 M 73.798 153.931 C 58.174 158.926, 46.746 170.368, 41.985 185.783 C 40.075 191.967, 40 195.234, 40 272.105 L 40 352 56 352 L 72 352 72 424 L 72 496 132 496 L 192 496 192 424 L 192 352 208 352 L 224 352 224 272.105 C 224 195.234, 223.925 191.967, 222.015 185.783 C 219.862 178.812, 213.986 169.074, 209.386 164.851 C 204.522 160.386, 196.815 156.026, 190.145 153.964 C 184.162 152.115, 180.735 152.003, 131.645 152.054 C 84.027 152.103, 79.005 152.266, 73.798 153.931 M 352 153.570 C 337.313 157.410, 321.290 169.480, 314.262 182 C 312.564 185.025, 296.961 225.409, 279.587 271.742 L 248 355.984 248 377.992 L 248 400 280 400 L 312 400 312 448 L 312 496 364 496 L 416 496 416 448 L 416 400 448 400 L 480 400 480 374.061 L 480 348.121 452.417 268.811 C 437.246 225.190, 423.413 186.800, 421.677 183.500 C 416.972 174.557, 405.194 163.184, 395.978 158.682 C 391.865 156.674, 385.818 154.348, 382.540 153.515 C 375.087 151.621, 359.347 151.649, 352 153.570 M 83.315 185.102 C 79.026 186.343, 74.300 191.260, 73.041 195.791 C 72.387 198.146, 72.009 221.498, 72.006 259.750 L 72 320 88 320 L 104 320 104 392 L 104 464 132 464 L 160 464 160 392 L 160 320 176 320 L 192 320 191.994 259.750 C 191.991 223.294, 191.600 198.100, 191.004 195.956 C 189.779 191.544, 184.474 186.283, 179.942 184.983 C 175.574 183.731, 87.682 183.838, 83.315 185.102 M 360.056 185.565 C 351.950 187.788, 346.012 192.578, 342.012 200.121 C 339.109 205.593, 280 363.716, 280 366.008 C 280 367.956, 280.707 368, 312 368 L 344 368 344 416 L 344 464 364 464 L 384 464 384 416 L 384 368 416 368 L 448 368 448 361.940 C 448 356.603, 444.947 347.101, 422.380 282.190 C 390.602 190.786, 393.714 198.918, 388.444 193.496 C 380.860 185.692, 370.324 182.749, 360.056 185.565" stroke="none" fill="#c2d0e1" fill-rule="evenodd"/></svg>